<?xml version="1.0" encoding="utf-8"?>
<!-- Generator: Adobe Illustrator 19.0.0, SVG Export Plug-In . SVG Version: 6.00 Build 0)  -->
<svg version="1.1" id="Layer_1" xmlns="http://www.w3.org/2000/svg" xmlns:xlink="http://www.w3.org/1999/xlink" x="0px" y="0px"
	 viewBox="0 0 250 100" style="enable-background:new 0 0 250 100;" xml:space="preserve">
<style type="text/css">
	.st0{fill:#FFFFFF;}
	.st1{fill:url(#XMLID_2_);}
	.st2{fill:url(#XMLID_3_);}
</style>
<g id="XMLID_204_">
	<g id="XMLID_207_">
		<g id="XMLID_211_">
			<path id="XMLID_212_" class="st0" d="M48.3,51.2c0,1.2-0.5,2.2-1.3,2.9l0,0L30.4,67.5c-0.6,0.5-1.3,0.7-2,0.7
				c-0.5,0-0.9-0.1-1.3-0.3c-1.2-0.6-2-1.9-2-3.3V37.7c0-1.4,0.8-2.7,2-3.3c1.1-0.5,2.4-0.4,3.4,0.4l16.6,13.4
				C47.8,49,48.3,50,48.3,51.2z"/>
		</g>
		<g id="XMLID_208_">
			
				<linearGradient id="XMLID_2_" gradientUnits="userSpaceOnUse" x1="-13.6323" y1="66.2375" x2="47.0807" y2="-3.554" gradientTransform="matrix(1 0 0 -1 0 100)">
				<stop  offset="0" style="stop-color:#FAA21C"/>
				<stop  offset="7.902423e-002" style="stop-color:#FA9D1B"/>
				<stop  offset="0.179" style="stop-color:#F88D1A"/>
				<stop  offset="0.2902" style="stop-color:#F67317"/>
				<stop  offset="0.4096" style="stop-color:#F34F13"/>
				<stop  offset="0.5341" style="stop-color:#F0210E"/>
				<stop  offset="0.6133" style="stop-color:#ED000A"/>
				<stop  offset="0.6607" style="stop-color:#E40028"/>
				<stop  offset="0.7363" style="stop-color:#D70053"/>
				<stop  offset="0.81" style="stop-color:#CD0174"/>
				<stop  offset="0.88" style="stop-color:#C6018C"/>
				<stop  offset="0.945" style="stop-color:#C1019A"/>
				<stop  offset="1" style="stop-color:#C0019F"/>
			</linearGradient>
			<path id="XMLID_210_" class="st1" d="M7.4,69.7V40.2c0-1.9-1.5-3.4-3.4-3.4l0,0c-1.9,0-3.4,1.5-3.4,3.4v29.5
				c0,8.4,6.8,15.2,15.2,15.2h29.5c1.9,0,3.4-1.5,3.4-3.4l0,0c0-1.9-1.5-3.4-3.4-3.4H15.7C11.2,78.1,7.4,74.4,7.4,69.7z"/>
			
				<linearGradient id="XMLID_3_" gradientUnits="userSpaceOnUse" x1="26.4575" y1="101.1124" x2="87.1705" y2="31.3208" gradientTransform="matrix(1 0 0 -1 0 100)">
				<stop  offset="0" style="stop-color:#FAA21C"/>
				<stop  offset="7.902423e-002" style="stop-color:#FA9D1B"/>
				<stop  offset="0.179" style="stop-color:#F88D1A"/>
				<stop  offset="0.2902" style="stop-color:#F67317"/>
				<stop  offset="0.4096" style="stop-color:#F34F13"/>
				<stop  offset="0.5341" style="stop-color:#F0210E"/>
				<stop  offset="0.6133" style="stop-color:#ED000A"/>
				<stop  offset="0.6607" style="stop-color:#E40028"/>
				<stop  offset="0.7363" style="stop-color:#D70053"/>
				<stop  offset="0.81" style="stop-color:#CD0174"/>
				<stop  offset="0.88" style="stop-color:#C6018C"/>
				<stop  offset="0.945" style="stop-color:#C1019A"/>
				<stop  offset="1" style="stop-color:#C0019F"/>
			</linearGradient>
			<path id="XMLID_209_" class="st2" d="M66,32.6v29.5c0,1.9,1.5,3.4,3.4,3.4l0,0c1.9,0,3.4-1.5,3.4-3.4V32.6
				c0-8.4-6.8-15.2-15.2-15.2H28c-1.9,0-3.4,1.5-3.4,3.4l0,0c0,1.9,1.5,3.4,3.4,3.4h29.5C62.2,24.2,66,28,66,32.6z"/>
		</g>
	</g>
	<g id="XMLID_215_">
		<g id="XMLID_216_">
			<path id="XMLID_83_" class="st0" d="M99.7,38.9c-5.5,0-9.6,4.2-9.6,9.5s4.3,9.5,9.6,9.5c2.7,0,5.6-1.3,7.5-3.2l2.7,3.1
				c-2.8,2.7-6.6,4.5-10.5,4.5c-7.9,0-14.1-6-14.1-13.8s6.2-13.6,14.3-13.6c3.9,0,7.6,1.6,10.3,4.2l-2.7,3.4
				C105.3,40.2,102.5,38.9,99.7,38.9z"/>
			<path id="XMLID_82_" class="st0" d="M117.3,33.4V62h-4.5V33.4H117.3z"/>
			<path id="XMLID_232_" class="st0" d="M127.3,35.5c0,1.6-1.1,2.7-2.6,2.7s-2.6-1.1-2.6-2.7s1.1-2.7,2.6-2.7S127.3,33.9,127.3,35.5
				z M126.9,41.5v20.6h-4.5V41.5H126.9z"/>
			<path id="XMLID_228_" class="st0" d="M153.6,51.8c0,6.1-3.9,10.3-9.7,10.3c-3.3,0-5.8-1.3-7.3-3.8v11H132v-28h4.5V45
				c1.5-2.4,4-3.8,7.2-3.8C149.6,41.3,153.6,45.5,153.6,51.8z M149,51.7c0-3.9-2.6-6.6-6.2-6.6c-3.7,0-6.2,2.8-6.2,6.6
				c0,4,2.6,6.7,6.2,6.7C146.4,58.4,149,55.6,149,51.7z"/>
			<path id="XMLID_77_" class="st0" d="M177,34.9V39h-14.8v7.3h13.2v4.1h-13.2v7.5h15.3V62h-19.8V34.9H177L177,34.9z"/>
			<path id="XMLID_224_" class="st0" d="M200.8,33.4V62h-4.5v-3.6c-1.5,2.4-4,3.8-7.2,3.8c-5.9,0-9.8-4.3-9.8-10.5s4-10.4,9.8-10.4
				c3.4,0,5.8,1.4,7.3,3.8V33.4H200.8z M196.3,51.8c0-4-2.6-6.7-6.3-6.7c-3.8,0-6.3,2.9-6.3,6.7c0,4,2.6,6.7,6.3,6.7
				C193.6,58.5,196.3,55.8,196.3,51.8z"/>
			<path id="XMLID_221_" class="st0" d="M210.7,35.5c0,1.6-1.1,2.7-2.6,2.7c-1.5,0-2.6-1.1-2.6-2.7s1.1-2.7,2.6-2.7
				S210.7,33.9,210.7,35.5z M210.4,41.5v20.6h-4.5V41.5H210.4z"/>
			<path id="XMLID_51_" class="st0" d="M226.9,60.7c-1.6,1-3.4,1.5-5.1,1.5c-3.1,0-5.8-1.8-5.8-6V45.5h-2.9v-3.4h2.9v-5.7h4.5v5.7h6
				v3.4h-6v9.8c0,2.2,0.8,2.8,2.2,2.8c0.9,0,1.9-0.3,3.1-0.9L226.9,60.7z"/>
			<path id="XMLID_217_" class="st0" d="M249.3,51.7c0,6.2-4.4,10.4-10.7,10.4c-6.4,0-10.7-4.3-10.7-10.4c0-6.2,4.4-10.4,10.7-10.4
				S249.3,45.5,249.3,51.7z M232.4,51.8c0,4,2.6,6.7,6.3,6.7c3.7,0,6.2-2.7,6.2-6.7c0-4-2.6-6.6-6.2-6.6
				C235,45.2,232.4,47.8,232.4,51.8z"/>
		</g>
	</g>
</g>
</svg>
